<svg width="89" height="36" viewBox="0 0 89 36" fill="none" xmlns="http://www.w3.org/2000/svg">
<path d="M27.77 12.03L29.17 13.43L16.43 26.17L10.83 20.57L12.23 19.17L16.43 23.37L27.77 12.03ZM27.77 9.19995L16.43 20.54L12.23 16.34L8 20.57L16.43 29L32 13.43L27.77 9.19995Z" fill="#211B12"/>
<path d="M36.3807 27.8068V23.0398H37.1705C37.4394 22.8466 37.6856 22.5739 37.9091 22.2216C38.1326 21.8655 38.3239 21.375 38.483 20.75C38.642 20.1212 38.7557 19.2992 38.8239 18.2841L39.1534 13.3636H46.8523V23.0398H48.125V27.7955H45.7614V25H38.7443V27.8068H36.3807ZM40.0114 23.0398H44.4886V15.392H41.3693L41.1875 18.2841C41.1383 19.053 41.0568 19.7348 40.9432 20.3295C40.8333 20.9242 40.6989 21.4451 40.5398 21.892C40.3845 22.3352 40.2083 22.7178 40.0114 23.0398ZM53.5526 25.1705C52.6548 25.1705 51.8821 24.9886 51.2344 24.625C50.5904 24.2576 50.0942 23.7386 49.7457 23.0682C49.3973 22.3939 49.223 21.5966 49.223 20.6761C49.223 19.7784 49.3973 18.9905 49.7457 18.3125C50.0942 17.6345 50.5848 17.1061 51.2173 16.7273C51.8537 16.3485 52.5999 16.1591 53.456 16.1591C54.0317 16.1591 54.5677 16.2519 55.0639 16.4375C55.5639 16.6193 55.9995 16.8939 56.3707 17.2614C56.7457 17.6288 57.0374 18.0909 57.2457 18.6477C57.4541 19.2008 57.5582 19.8485 57.5582 20.5909V21.2557H50.1889V19.7557H55.2798C55.2798 19.4072 55.2041 19.0985 55.0526 18.8295C54.901 18.5606 54.6908 18.3504 54.4219 18.1989C54.1567 18.0436 53.848 17.9659 53.4957 17.9659C53.1283 17.9659 52.8026 18.0511 52.5185 18.2216C52.2382 18.3883 52.0185 18.6136 51.8594 18.8977C51.7003 19.178 51.6188 19.4905 51.6151 19.8352V21.2614C51.6151 21.6932 51.6946 22.0663 51.8537 22.3807C52.0166 22.6951 52.2457 22.9375 52.5412 23.108C52.8366 23.2784 53.187 23.3636 53.5923 23.3636C53.8613 23.3636 54.1075 23.3258 54.331 23.25C54.5545 23.1742 54.7457 23.0606 54.9048 22.9091C55.0639 22.7576 55.1851 22.572 55.2685 22.3523L57.5071 22.5C57.3935 23.0379 57.1605 23.5076 56.8082 23.9091C56.4598 24.3068 56.009 24.6174 55.456 24.8409C54.9067 25.0606 54.2723 25.1705 53.5526 25.1705ZM64.2969 22.3239L66.6605 16.2727H68.5014L65.098 25H63.4901L60.1662 16.2727H62.0014L64.2969 22.3239ZM61.4503 16.2727V25H59.1378V16.2727H61.4503ZM67.2628 25V16.2727H69.5469V25H67.2628ZM75.3622 25.1705C74.4796 25.1705 73.7164 24.983 73.0724 24.608C72.4323 24.2292 71.938 23.7027 71.5895 23.0284C71.241 22.3504 71.0668 21.5644 71.0668 20.6705C71.0668 19.7689 71.241 18.9811 71.5895 18.3068C71.938 17.6288 72.4323 17.1023 73.0724 16.7273C73.7164 16.3485 74.4796 16.1591 75.3622 16.1591C76.2448 16.1591 77.0062 16.3485 77.6463 16.7273C78.2902 17.1023 78.7865 17.6288 79.1349 18.3068C79.4834 18.9811 79.6577 19.7689 79.6577 20.6705C79.6577 21.5644 79.4834 22.3504 79.1349 23.0284C78.7865 23.7027 78.2902 24.2292 77.6463 24.608C77.0062 24.983 76.2448 25.1705 75.3622 25.1705ZM75.3736 23.2955C75.7751 23.2955 76.1103 23.1818 76.3793 22.9545C76.6482 22.7235 76.8509 22.4091 76.9872 22.0114C77.1274 21.6136 77.1974 21.161 77.1974 20.6534C77.1974 20.1458 77.1274 19.6932 76.9872 19.2955C76.8509 18.8977 76.6482 18.5833 76.3793 18.3523C76.1103 18.1212 75.7751 18.0057 75.3736 18.0057C74.9683 18.0057 74.6274 18.1212 74.3509 18.3523C74.0781 18.5833 73.8717 18.8977 73.7315 19.2955C73.5952 19.6932 73.527 20.1458 73.527 20.6534C73.527 21.161 73.5952 21.6136 73.7315 22.0114C73.8717 22.4091 74.0781 22.7235 74.3509 22.9545C74.6274 23.1818 74.9683 23.2955 75.3736 23.2955Z" fill="#211B12"/>
</svg>
